<svg xmlns="http://www.w3.org/2000/svg" fill="none" viewBox="0 0 512 512"><circle cx="448.00003" cy="63.999996" r="22" stroke="#000" stroke-width="4"/><path stroke="#000" stroke-linecap="round" stroke-width="4" d="M51.999977 53.999973h86v74h-86z" paint-order="markers fill stroke"/><path stroke="#000" stroke-linecap="round" stroke-width="3.99998" d="M56 294h64v56H56zm166 0h64v56h-64zm170 0h64v56h-64z" paint-order="markers fill stroke"/><path fill="#000" d="M54.000011 382h68v60h-68zM220 382h68v60h-68zm170 0h68v60h-68z" paint-order="markers fill stroke"/><path stroke="#000" stroke-linecap="round" stroke-width="3.99995" d="M97.999954 181.99998h316.00009v68.000008H97.999954z" paint-order="markers fill stroke"/><g stroke="#000" stroke-linecap="round" stroke-width="3.38366" paint-order="markers fill stroke" transform="matrix(1.19014 0 0 1.17423 97.59432 143.05401)"><ellipse cx="139.03574" cy="-165.80434" rx="39.710361" ry="47.974632" transform="rotate(29.9) skewX(-.198)"/><ellipse cx="138.39993" cy="-163.15083" rx="29.32065" ry="35.445648" transform="rotate(29.933) skewX(-.134)"/></g><path stroke="#000" stroke-width="4.00001" d="M92.99997 99.999973H60.99998m32-18H60.99999m22.4-15v48m-12.8-48v48m58.39996-15H96.99997m32-18H96.99998m22.39998-15v48m-12.79999-48v48M99.99999 328H76m24-12H76.00001m16.8-10v32m-9.6-32v32m182.79998-10H242m24-12h-23.99999m16.8-10v32m-9.6-32v32m186.79998-10H412m24-12h-23.99999m16.8-10v32m-9.6-32v32"/><path stroke="#000" stroke-width="4" d="M117.99999 215.99999H394m-276.00001-12H394m-276.00001 24H394"/><path fill="#000" d="M16 16v480h480V16H381v4h111v472H20V20h291v-4H16z" paint-order="markers fill stroke"/></svg>